# xmcd
#
# Track frame offsets: 
#        150
#        18997
#        36160
#        56212
#        71117
#        89965
#        110085
#        125145
#        142442
#        163045
#
# Disc length: 2456 seconds
#
# Revision: 8
# Processed by: cddbd v1.5.2PL0 Copyright (c) Steve Scherf et al.
# Submitted via: ExactAudioCopy v1.3
#
DISCID=a609960a
DTITLE=A-Mei Chang - I want happiness?
DYEAR=2006
DGENRE=pop
TTITLE0=Unambitious
TTITLE1=Hostage
TTITLE2=Not Like an Adult
TTITLE3=Because You're Here
TTITLE4=I Want Happiness
TTITLE5=Chinese Girl
TTITLE6=Don't Unthinkingly Say
TTITLE7=Innocent
TTITLE8=So I'm Willing To
TTITLE9=As Wide as Sea and Sky (Boundless)
EXTD=
EXTT0=
EXTT1=
EXTT2=
EXTT3=
EXTT4=
EXTT5=
EXTT6=
EXTT7=
EXTT8=
EXTT9=
PLAYORDER=
